{
	"patcher" : 	{
		"fileversion" : 1,
		"appversion" : 		{
			"major" : 7,
			"minor" : 3,
			"revision" : 3,
			"architecture" : "x64",
			"modernui" : 1
		}
,
		"rect" : [ 35.0, 85.0, 730.0, 740.0 ],
		"bglocked" : 0,
		"openinpresentation" : 0,
		"default_fontsize" : 12.0,
		"default_fontface" : 0,
		"default_fontname" : "Arial",
		"gridonopen" : 1,
		"gridsize" : [ 15.0, 15.0 ],
		"gridsnaponopen" : 1,
		"objectsnaponopen" : 1,
		"statusbarvisible" : 2,
		"toolbarvisible" : 1,
		"lefttoolbarpinned" : 0,
		"toptoolbarpinned" : 0,
		"righttoolbarpinned" : 0,
		"bottomtoolbarpinned" : 0,
		"toolbars_unpinned_last_save" : 0,
		"tallnewobj" : 0,
		"boxanimatetime" : 200,
		"enablehscroll" : 1,
		"enablevscroll" : 1,
		"devicewidth" : 0.0,
		"description" : "",
		"digest" : "",
		"tags" : "",
		"style" : "",
		"subpatcher_template" : "",
		"boxes" : [ 			{
				"box" : 				{
					"fontsize" : 14.0,
					"id" : "obj-12",
					"maxclass" : "comment",
					"numinlets" : 1,
					"numoutlets" : 0,
					"patching_rect" : [ 278.481079, 332.244873, 29.0, 23.0 ],
					"style" : "",
					"text" : "(g)"
				}

			}
, 			{
				"box" : 				{
					"id" : "obj-287",
					"maxclass" : "comment",
					"numinlets" : 1,
					"numoutlets" : 0,
					"patching_rect" : [ 339.43042, 132.514282, 25.0, 20.0 ],
					"style" : "",
					"text" : "(e)"
				}

			}
, 			{
				"box" : 				{
					"fontsize" : 14.0,
					"id" : "obj-289",
					"linecount" : 2,
					"maxclass" : "comment",
					"numinlets" : 1,
					"numoutlets" : 0,
					"patching_rect" : [ 316.911499, 325.744873, 163.0, 39.0 ],
					"style" : "",
					"text" : "g = ( (e-t)*(1/r) + t ) / e,\n0.<=g<=1."
				}

			}
, 			{
				"box" : 				{
					"fontsize" : 14.0,
					"id" : "obj-300",
					"maxclass" : "comment",
					"numinlets" : 1,
					"numoutlets" : 0,
					"patching_rect" : [ 547.126587, 448.36731, 96.0, 23.0 ],
					"style" : "",
					"text" : "Reduction (g)"
				}

			}
, 			{
				"box" : 				{
					"fontsize" : 14.0,
					"id" : "obj-306",
					"maxclass" : "comment",
					"numinlets" : 1,
					"numoutlets" : 0,
					"patching_rect" : [ 547.126587, 404.240723, 91.0, 23.0 ],
					"style" : "",
					"text" : "Envelope (e)"
				}

			}
, 			{
				"box" : 				{
					"format" : 6,
					"id" : "obj-310",
					"maxclass" : "flonum",
					"numinlets" : 1,
					"numoutlets" : 2,
					"outlettype" : [ "", "bang" ],
					"parameter_enable" : 0,
					"patching_rect" : [ 269.0, 404.240723, 69.0, 22.0 ],
					"style" : ""
				}

			}
, 			{
				"box" : 				{
					"format" : 6,
					"id" : "obj-311",
					"maxclass" : "flonum",
					"numinlets" : 1,
					"numoutlets" : 2,
					"outlettype" : [ "", "bang" ],
					"parameter_enable" : 0,
					"patching_rect" : [ 269.0, 448.36731, 69.0, 22.0 ],
					"style" : ""
				}

			}
, 			{
				"box" : 				{
					"id" : "obj-312",
					"maxclass" : "newobj",
					"numinlets" : 2,
					"numoutlets" : 1,
					"outlettype" : [ "float" ],
					"patching_rect" : [ 308.278564, 100.0, 42.0, 22.0 ],
					"style" : "",
					"text" : "* 44.1"
				}

			}
, 			{
				"box" : 				{
					"id" : "obj-313",
					"maxclass" : "newobj",
					"numinlets" : 2,
					"numoutlets" : 1,
					"outlettype" : [ "float" ],
					"patching_rect" : [ 250.038086, 101.161255, 42.0, 22.0 ],
					"style" : "",
					"text" : "* 44.1"
				}

			}
, 			{
				"box" : 				{
					"id" : "obj-314",
					"maxclass" : "newobj",
					"numinlets" : 2,
					"numoutlets" : 1,
					"outlettype" : [ "float" ],
					"patching_rect" : [ 160.64563, 404.240723, 76.0, 22.0 ],
					"style" : "",
					"text" : "snapshot~ 5"
				}

			}
, 			{
				"box" : 				{
					"id" : "obj-315",
					"maxclass" : "multislider",
					"numinlets" : 1,
					"numoutlets" : 2,
					"orientation" : 0,
					"outlettype" : [ "", "" ],
					"parameter_enable" : 0,
					"patching_rect" : [ 376.0, 404.240723, 156.0, 25.0 ],
					"setminmax" : [ 0.0, 1.0 ],
					"setstyle" : 1,
					"style" : ""
				}

			}
, 			{
				"box" : 				{
					"bgcolor" : [ 0.784314, 0.145098, 0.023529, 1.0 ],
					"id" : "obj-316",
					"maxclass" : "multislider",
					"numinlets" : 1,
					"numoutlets" : 2,
					"orientation" : 0,
					"outlettype" : [ "", "" ],
					"parameter_enable" : 0,
					"patching_rect" : [ 376.0, 448.36731, 156.0, 25.0 ],
					"setminmax" : [ 0.0, 1.0 ],
					"setstyle" : 1,
					"style" : ""
				}

			}
, 			{
				"box" : 				{
					"id" : "obj-318",
					"maxclass" : "newobj",
					"numinlets" : 2,
					"numoutlets" : 1,
					"outlettype" : [ "float" ],
					"patching_rect" : [ 160.64563, 448.36731, 76.0, 22.0 ],
					"style" : "",
					"text" : "snapshot~ 5"
				}

			}
, 			{
				"box" : 				{
					"id" : "obj-48",
					"maxclass" : "newobj",
					"numinlets" : 2,
					"numoutlets" : 1,
					"outlettype" : [ "signal" ],
					"patching_rect" : [ 50.0, 207.210205, 29.5, 22.0 ],
					"style" : "",
					"text" : "*~"
				}

			}
, 			{
				"box" : 				{
					"id" : "obj-45",
					"maxclass" : "meter~",
					"numinlets" : 1,
					"numoutlets" : 1,
					"outlettype" : [ "float" ],
					"patching_rect" : [ 116.367188, 237.401978, 17.0, 67.0 ],
					"style" : ""
				}

			}
, 			{
				"box" : 				{
					"id" : "obj-44",
					"maxclass" : "newobj",
					"numinlets" : 2,
					"numoutlets" : 1,
					"outlettype" : [ "signal" ],
					"patching_rect" : [ 191.797485, 296.246948, 29.5, 22.0 ],
					"style" : "",
					"text" : "!/~"
				}

			}
, 			{
				"box" : 				{
					"id" : "obj-43",
					"maxclass" : "newobj",
					"numinlets" : 2,
					"numoutlets" : 1,
					"outlettype" : [ "signal" ],
					"patching_rect" : [ 237.848145, 254.442871, 29.5, 22.0 ],
					"style" : "",
					"text" : "+~"
				}

			}
, 			{
				"box" : 				{
					"id" : "obj-42",
					"maxclass" : "newobj",
					"numinlets" : 2,
					"numoutlets" : 1,
					"outlettype" : [ "float" ],
					"patching_rect" : [ 363.569702, 100.0, 31.0, 22.0 ],
					"style" : "",
					"text" : "!/ 1."
				}

			}
, 			{
				"box" : 				{
					"id" : "obj-324",
					"maxclass" : "newobj",
					"numinlets" : 3,
					"numoutlets" : 1,
					"outlettype" : [ "signal" ],
					"patching_rect" : [ 191.797485, 332.244873, 62.0, 22.0 ],
					"style" : "",
					"text" : "clip~ 0. 1."
				}

			}
, 			{
				"box" : 				{
					"id" : "obj-325",
					"maxclass" : "newobj",
					"numinlets" : 2,
					"numoutlets" : 1,
					"outlettype" : [ "signal" ],
					"patching_rect" : [ 237.848145, 216.122437, 29.5, 22.0 ],
					"style" : "",
					"text" : "*~"
				}

			}
, 			{
				"box" : 				{
					"id" : "obj-327",
					"maxclass" : "newobj",
					"numinlets" : 2,
					"numoutlets" : 1,
					"outlettype" : [ "signal" ],
					"patching_rect" : [ 237.848145, 180.124512, 29.5, 22.0 ],
					"style" : "",
					"text" : "-~"
				}

			}
, 			{
				"box" : 				{
					"id" : "obj-335",
					"maxclass" : "newobj",
					"numinlets" : 3,
					"numoutlets" : 1,
					"outlettype" : [ "signal" ],
					"patching_rect" : [ 191.797485, 137.15918, 86.0, 22.0 ],
					"style" : "newobjYellow-1",
					"text" : "rampsmooth~"
				}

			}
, 			{
				"box" : 				{
					"id" : "obj-336",
					"maxclass" : "newobj",
					"numinlets" : 1,
					"numoutlets" : 1,
					"outlettype" : [ "signal" ],
					"patching_rect" : [ 191.797485, 102.32251, 37.0, 22.0 ],
					"style" : "",
					"text" : "abs~"
				}

			}
, 			{
				"box" : 				{
					"comment" : "",
					"id" : "obj-337",
					"index" : 1,
					"maxclass" : "inlet",
					"numinlets" : 0,
					"numoutlets" : 1,
					"outlettype" : [ "signal" ],
					"patching_rect" : [ 114.898682, 40.0, 30.0, 30.0 ],
					"style" : ""
				}

			}
, 			{
				"box" : 				{
					"comment" : "",
					"id" : "obj-338",
					"index" : 4,
					"maxclass" : "inlet",
					"numinlets" : 0,
					"numoutlets" : 1,
					"outlettype" : [ "" ],
					"patching_rect" : [ 301.848145, 40.0, 30.0, 30.0 ],
					"style" : ""
				}

			}
, 			{
				"box" : 				{
					"comment" : "",
					"id" : "obj-340",
					"index" : 2,
					"maxclass" : "inlet",
					"numinlets" : 0,
					"numoutlets" : 1,
					"outlettype" : [ "" ],
					"patching_rect" : [ 187.848145, 40.0, 30.0, 30.0 ],
					"style" : ""
				}

			}
, 			{
				"box" : 				{
					"comment" : "",
					"id" : "obj-341",
					"index" : 3,
					"maxclass" : "inlet",
					"numinlets" : 0,
					"numoutlets" : 1,
					"outlettype" : [ "" ],
					"patching_rect" : [ 226.848145, 40.0, 30.0, 30.0 ],
					"style" : ""
				}

			}
, 			{
				"box" : 				{
					"comment" : "",
					"id" : "obj-342",
					"index" : 5,
					"maxclass" : "inlet",
					"numinlets" : 0,
					"numoutlets" : 1,
					"outlettype" : [ "" ],
					"patching_rect" : [ 363.569702, 40.0, 30.0, 30.0 ],
					"style" : ""
				}

			}
, 			{
				"box" : 				{
					"comment" : "",
					"id" : "obj-343",
					"index" : 1,
					"maxclass" : "outlet",
					"numinlets" : 1,
					"numoutlets" : 0,
					"patching_rect" : [ 50.0, 547.32312, 30.0, 30.0 ],
					"style" : ""
				}

			}
 ],
		"lines" : [ 			{
				"patchline" : 				{
					"destination" : [ "obj-315", 0 ],
					"disabled" : 0,
					"hidden" : 0,
					"midpoints" : [ 278.5, 439.077598, 370.582291, 439.077598, 370.582291, 400.757163, 385.5, 400.757163 ],
					"source" : [ "obj-310", 0 ]
				}

			}
, 			{
				"patchline" : 				{
					"destination" : [ "obj-316", 0 ],
					"disabled" : 0,
					"hidden" : 0,
					"midpoints" : [ 278.5, 485.526572, 370.582291, 485.526572, 370.582291, 443.722495, 385.5, 443.722495 ],
					"source" : [ "obj-311", 0 ]
				}

			}
, 			{
				"patchline" : 				{
					"destination" : [ "obj-335", 2 ],
					"disabled" : 0,
					"hidden" : 0,
					"source" : [ "obj-312", 0 ]
				}

			}
, 			{
				"patchline" : 				{
					"destination" : [ "obj-335", 1 ],
					"disabled" : 0,
					"hidden" : 0,
					"source" : [ "obj-313", 0 ]
				}

			}
, 			{
				"patchline" : 				{
					"destination" : [ "obj-310", 0 ],
					"disabled" : 0,
					"hidden" : 0,
					"midpoints" : [ 170.14563, 439.077598, 264.936722, 439.077598, 264.936722, 400.757163, 278.5, 400.757163 ],
					"source" : [ "obj-314", 0 ]
				}

			}
, 			{
				"patchline" : 				{
					"destination" : [ "obj-311", 0 ],
					"disabled" : 0,
					"hidden" : 0,
					"midpoints" : [ 170.14563, 485.526572, 264.936722, 485.526572, 264.936722, 443.722495, 278.5, 443.722495 ],
					"source" : [ "obj-318", 0 ]
				}

			}
, 			{
				"patchline" : 				{
					"color" : [ 0.811765, 0.372549, 0.372549, 1.0 ],
					"destination" : [ "obj-318", 0 ],
					"disabled" : 0,
					"hidden" : 0,
					"midpoints" : [ 201.297485, 384.500022, 153.873444, 384.500022, 153.873444, 439.077598, 170.14563, 439.077598 ],
					"order" : 0,
					"source" : [ "obj-324", 0 ]
				}

			}
, 			{
				"patchline" : 				{
					"color" : [ 0.811765, 0.372549, 0.372549, 1.0 ],
					"destination" : [ "obj-48", 1 ],
					"disabled" : 0,
					"hidden" : 0,
					"midpoints" : [ 201.297485, 365.489829, 143.253189, 365.489829, 143.253189, 202.489829, 70.0, 202.489829 ],
					"order" : 1,
					"source" : [ "obj-324", 0 ]
				}

			}
, 			{
				"patchline" : 				{
					"destination" : [ "obj-43", 0 ],
					"disabled" : 0,
					"hidden" : 0,
					"source" : [ "obj-325", 0 ]
				}

			}
, 			{
				"patchline" : 				{
					"destination" : [ "obj-325", 0 ],
					"disabled" : 0,
					"hidden" : 0,
					"source" : [ "obj-327", 0 ]
				}

			}
, 			{
				"patchline" : 				{
					"color" : [ 0.403922, 0.109804, 0.701961, 1.0 ],
					"destination" : [ "obj-314", 0 ],
					"disabled" : 0,
					"hidden" : 0,
					"midpoints" : [ 201.297485, 282.312278, 170.14563, 282.312278 ],
					"order" : 2,
					"source" : [ "obj-335", 0 ]
				}

			}
, 			{
				"patchline" : 				{
					"color" : [ 0.403922, 0.109804, 0.701961, 1.0 ],
					"destination" : [ "obj-327", 0 ],
					"disabled" : 0,
					"hidden" : 0,
					"midpoints" : [ 201.297485, 173.35105, 247.348145, 173.35105 ],
					"order" : 0,
					"source" : [ "obj-335", 0 ]
				}

			}
, 			{
				"patchline" : 				{
					"color" : [ 0.403922, 0.109804, 0.701961, 1.0 ],
					"destination" : [ "obj-44", 0 ],
					"disabled" : 0,
					"hidden" : 0,
					"order" : 1,
					"source" : [ "obj-335", 0 ]
				}

			}
, 			{
				"patchline" : 				{
					"destination" : [ "obj-335", 0 ],
					"disabled" : 0,
					"hidden" : 0,
					"source" : [ "obj-336", 0 ]
				}

			}
, 			{
				"patchline" : 				{
					"destination" : [ "obj-336", 0 ],
					"disabled" : 0,
					"hidden" : 0,
					"order" : 0,
					"source" : [ "obj-337", 0 ]
				}

			}
, 			{
				"patchline" : 				{
					"destination" : [ "obj-48", 0 ],
					"disabled" : 0,
					"hidden" : 0,
					"order" : 1,
					"source" : [ "obj-337", 0 ]
				}

			}
, 			{
				"patchline" : 				{
					"destination" : [ "obj-327", 1 ],
					"disabled" : 0,
					"hidden" : 0,
					"order" : 1,
					"source" : [ "obj-338", 0 ]
				}

			}
, 			{
				"patchline" : 				{
					"destination" : [ "obj-43", 1 ],
					"disabled" : 0,
					"hidden" : 0,
					"order" : 0,
					"source" : [ "obj-338", 0 ]
				}

			}
, 			{
				"patchline" : 				{
					"destination" : [ "obj-313", 0 ],
					"disabled" : 0,
					"hidden" : 0,
					"source" : [ "obj-340", 0 ]
				}

			}
, 			{
				"patchline" : 				{
					"destination" : [ "obj-312", 0 ],
					"disabled" : 0,
					"hidden" : 0,
					"source" : [ "obj-341", 0 ]
				}

			}
, 			{
				"patchline" : 				{
					"destination" : [ "obj-42", 0 ],
					"disabled" : 0,
					"hidden" : 0,
					"source" : [ "obj-342", 0 ]
				}

			}
, 			{
				"patchline" : 				{
					"destination" : [ "obj-325", 1 ],
					"disabled" : 0,
					"hidden" : 0,
					"midpoints" : [ 373.069702, 212.058204, 257.848145, 212.058204 ],
					"source" : [ "obj-42", 0 ]
				}

			}
, 			{
				"patchline" : 				{
					"destination" : [ "obj-44", 1 ],
					"disabled" : 0,
					"hidden" : 0,
					"source" : [ "obj-43", 0 ]
				}

			}
, 			{
				"patchline" : 				{
					"destination" : [ "obj-324", 0 ],
					"disabled" : 0,
					"hidden" : 0,
					"source" : [ "obj-44", 0 ]
				}

			}
, 			{
				"patchline" : 				{
					"destination" : [ "obj-343", 0 ],
					"disabled" : 0,
					"hidden" : 0,
					"order" : 1,
					"source" : [ "obj-48", 0 ]
				}

			}
, 			{
				"patchline" : 				{
					"destination" : [ "obj-45", 0 ],
					"disabled" : 0,
					"hidden" : 0,
					"order" : 0,
					"source" : [ "obj-48", 0 ]
				}

			}
 ]
	}

}
