{
	"patcher" : 	{
		"fileversion" : 1,
		"appversion" : 		{
			"major" : 7,
			"minor" : 3,
			"revision" : 3,
			"architecture" : "x64",
			"modernui" : 1
		}
,
		"rect" : [ 67.0, 110.0, 640.0, 480.0 ],
		"bglocked" : 0,
		"openinpresentation" : 0,
		"default_fontsize" : 12.0,
		"default_fontface" : 0,
		"default_fontname" : "Arial",
		"gridonopen" : 1,
		"gridsize" : [ 15.0, 15.0 ],
		"gridsnaponopen" : 1,
		"objectsnaponopen" : 1,
		"statusbarvisible" : 2,
		"toolbarvisible" : 1,
		"lefttoolbarpinned" : 0,
		"toptoolbarpinned" : 0,
		"righttoolbarpinned" : 0,
		"bottomtoolbarpinned" : 0,
		"toolbars_unpinned_last_save" : 0,
		"tallnewobj" : 0,
		"boxanimatetime" : 200,
		"enablehscroll" : 1,
		"enablevscroll" : 1,
		"devicewidth" : 0.0,
		"description" : "",
		"digest" : "",
		"tags" : "",
		"style" : "",
		"subpatcher_template" : "",
		"boxes" : [ 			{
				"box" : 				{
					"id" : "obj-721",
					"maxclass" : "number",
					"numinlets" : 1,
					"numoutlets" : 2,
					"outlettype" : [ "", "bang" ],
					"parameter_enable" : 0,
					"patching_rect" : [ 113.416504, 368.0, 50.0, 22.0 ],
					"style" : ""
				}

			}
, 			{
				"box" : 				{
					"id" : "obj-719",
					"maxclass" : "button",
					"numinlets" : 1,
					"numoutlets" : 1,
					"outlettype" : [ "bang" ],
					"patching_rect" : [ 412.416504, 361.0, 24.0, 24.0 ],
					"style" : ""
				}

			}
, 			{
				"box" : 				{
					"id" : "obj-717",
					"maxclass" : "newobj",
					"numinlets" : 1,
					"numoutlets" : 1,
					"outlettype" : [ "" ],
					"patching_rect" : [ 270.416504, 310.0, 116.0, 22.0 ],
					"style" : "",
					"text" : "if $i1 != 0 then bang"
				}

			}
, 			{
				"box" : 				{
					"id" : "obj-714",
					"maxclass" : "message",
					"numinlets" : 2,
					"numoutlets" : 1,
					"outlettype" : [ "" ],
					"patching_rect" : [ 128.416504, 277.0, 29.5, 22.0 ],
					"style" : "",
					"text" : "-1"
				}

			}
, 			{
				"box" : 				{
					"id" : "obj-713",
					"maxclass" : "newobj",
					"numinlets" : 2,
					"numoutlets" : 1,
					"outlettype" : [ "int" ],
					"patching_rect" : [ 128.416504, 315.0, 29.5, 22.0 ],
					"style" : "",
					"text" : "*"
				}

			}
, 			{
				"box" : 				{
					"id" : "obj-710",
					"maxclass" : "button",
					"numinlets" : 1,
					"numoutlets" : 1,
					"outlettype" : [ "bang" ],
					"patching_rect" : [ 110.416504, 185.0, 24.0, 24.0 ],
					"style" : ""
				}

			}
, 			{
				"box" : 				{
					"id" : "obj-702",
					"maxclass" : "number",
					"numinlets" : 1,
					"numoutlets" : 2,
					"outlettype" : [ "", "bang" ],
					"parameter_enable" : 0,
					"patching_rect" : [ 202.416504, 284.0, 50.0, 22.0 ],
					"style" : ""
				}

			}
, 			{
				"box" : 				{
					"id" : "obj-703",
					"maxclass" : "newobj",
					"numinlets" : 1,
					"numoutlets" : 1,
					"outlettype" : [ "" ],
					"patching_rect" : [ 202.416504, 254.0, 144.0, 22.0 ],
					"style" : "",
					"text" : "if $i1 < 20 then $i1 else 0"
				}

			}
, 			{
				"box" : 				{
					"id" : "obj-695",
					"maxclass" : "message",
					"numinlets" : 2,
					"numoutlets" : 1,
					"outlettype" : [ "" ],
					"patching_rect" : [ 202.416504, 189.0, 31.0, 22.0 ],
					"style" : "",
					"text" : "128"
				}

			}
, 			{
				"box" : 				{
					"id" : "obj-693",
					"maxclass" : "button",
					"numinlets" : 1,
					"numoutlets" : 1,
					"outlettype" : [ "bang" ],
					"patching_rect" : [ 202.416504, 160.0, 24.0, 24.0 ],
					"style" : ""
				}

			}
, 			{
				"box" : 				{
					"id" : "obj-691",
					"maxclass" : "newobj",
					"numinlets" : 2,
					"numoutlets" : 1,
					"outlettype" : [ "int" ],
					"patching_rect" : [ 202.416504, 224.0, 29.5, 22.0 ],
					"style" : "",
					"text" : "-"
				}

			}
, 			{
				"box" : 				{
					"id" : "obj-690",
					"maxclass" : "number",
					"numinlets" : 1,
					"numoutlets" : 2,
					"outlettype" : [ "", "bang" ],
					"parameter_enable" : 0,
					"patching_rect" : [ 257.416504, 137.0, 50.0, 22.0 ],
					"style" : ""
				}

			}
, 			{
				"box" : 				{
					"id" : "obj-688",
					"maxclass" : "number",
					"numinlets" : 1,
					"numoutlets" : 2,
					"outlettype" : [ "", "bang" ],
					"parameter_enable" : 0,
					"patching_rect" : [ 110.416504, 143.0, 50.0, 22.0 ],
					"style" : ""
				}

			}
, 			{
				"box" : 				{
					"id" : "obj-686",
					"maxclass" : "newobj",
					"numinlets" : 1,
					"numoutlets" : 1,
					"outlettype" : [ "" ],
					"patching_rect" : [ 257.416504, 100.0, 154.499847, 22.0 ],
					"style" : "",
					"text" : "if $i1 > 120 then $i1 else 0"
				}

			}
, 			{
				"box" : 				{
					"id" : "obj-685",
					"maxclass" : "newobj",
					"numinlets" : 1,
					"numoutlets" : 1,
					"outlettype" : [ "" ],
					"patching_rect" : [ 110.416504, 100.0, 144.0, 22.0 ],
					"style" : "",
					"text" : "if $i1 < 20 then $i1 else 0"
				}

			}
, 			{
				"box" : 				{
					"id" : "obj-684",
					"maxclass" : "newobj",
					"numinlets" : 3,
					"numoutlets" : 1,
					"outlettype" : [ "int" ],
					"patching_rect" : [ 50.0, 239.0, 46.0, 22.0 ],
					"style" : "",
					"text" : "accum"
				}

			}
, 			{
				"box" : 				{
					"comment" : "",
					"id" : "obj-722",
					"index" : 1,
					"maxclass" : "inlet",
					"numinlets" : 0,
					"numoutlets" : 1,
					"outlettype" : [ "" ],
					"patching_rect" : [ 177.916504, 40.0, 30.0, 30.0 ],
					"style" : ""
				}

			}
, 			{
				"box" : 				{
					"comment" : "",
					"id" : "obj-723",
					"index" : 1,
					"maxclass" : "outlet",
					"numinlets" : 1,
					"numoutlets" : 0,
					"patching_rect" : [ 50.0, 458.544189, 30.0, 30.0 ],
					"style" : ""
				}

			}
 ],
		"lines" : [ 			{
				"patchline" : 				{
					"destination" : [ "obj-723", 0 ],
					"disabled" : 0,
					"hidden" : 0,
					"source" : [ "obj-684", 0 ]
				}

			}
, 			{
				"patchline" : 				{
					"destination" : [ "obj-688", 0 ],
					"disabled" : 0,
					"hidden" : 0,
					"source" : [ "obj-685", 0 ]
				}

			}
, 			{
				"patchline" : 				{
					"destination" : [ "obj-690", 0 ],
					"disabled" : 0,
					"hidden" : 0,
					"source" : [ "obj-686", 0 ]
				}

			}
, 			{
				"patchline" : 				{
					"destination" : [ "obj-684", 1 ],
					"disabled" : 0,
					"hidden" : 0,
					"order" : 1,
					"source" : [ "obj-688", 0 ]
				}

			}
, 			{
				"patchline" : 				{
					"destination" : [ "obj-710", 0 ],
					"disabled" : 0,
					"hidden" : 0,
					"order" : 0,
					"source" : [ "obj-688", 0 ]
				}

			}
, 			{
				"patchline" : 				{
					"destination" : [ "obj-691", 1 ],
					"disabled" : 0,
					"hidden" : 0,
					"order" : 0,
					"source" : [ "obj-690", 0 ]
				}

			}
, 			{
				"patchline" : 				{
					"destination" : [ "obj-693", 0 ],
					"disabled" : 0,
					"hidden" : 0,
					"order" : 1,
					"source" : [ "obj-690", 0 ]
				}

			}
, 			{
				"patchline" : 				{
					"destination" : [ "obj-703", 0 ],
					"disabled" : 0,
					"hidden" : 0,
					"source" : [ "obj-691", 0 ]
				}

			}
, 			{
				"patchline" : 				{
					"destination" : [ "obj-695", 0 ],
					"disabled" : 0,
					"hidden" : 0,
					"source" : [ "obj-693", 0 ]
				}

			}
, 			{
				"patchline" : 				{
					"destination" : [ "obj-691", 0 ],
					"disabled" : 0,
					"hidden" : 0,
					"source" : [ "obj-695", 0 ]
				}

			}
, 			{
				"patchline" : 				{
					"destination" : [ "obj-713", 1 ],
					"disabled" : 0,
					"hidden" : 0,
					"order" : 1,
					"source" : [ "obj-702", 0 ]
				}

			}
, 			{
				"patchline" : 				{
					"destination" : [ "obj-717", 0 ],
					"disabled" : 0,
					"hidden" : 0,
					"order" : 0,
					"source" : [ "obj-702", 0 ]
				}

			}
, 			{
				"patchline" : 				{
					"destination" : [ "obj-702", 0 ],
					"disabled" : 0,
					"hidden" : 0,
					"source" : [ "obj-703", 0 ]
				}

			}
, 			{
				"patchline" : 				{
					"destination" : [ "obj-684", 0 ],
					"disabled" : 0,
					"hidden" : 0,
					"source" : [ "obj-710", 0 ]
				}

			}
, 			{
				"patchline" : 				{
					"destination" : [ "obj-721", 0 ],
					"disabled" : 0,
					"hidden" : 0,
					"source" : [ "obj-713", 0 ]
				}

			}
, 			{
				"patchline" : 				{
					"destination" : [ "obj-713", 0 ],
					"disabled" : 0,
					"hidden" : 0,
					"source" : [ "obj-714", 0 ]
				}

			}
, 			{
				"patchline" : 				{
					"destination" : [ "obj-719", 0 ],
					"disabled" : 0,
					"hidden" : 0,
					"source" : [ "obj-717", 0 ]
				}

			}
, 			{
				"patchline" : 				{
					"destination" : [ "obj-714", 0 ],
					"disabled" : 0,
					"hidden" : 0,
					"source" : [ "obj-719", 0 ]
				}

			}
, 			{
				"patchline" : 				{
					"destination" : [ "obj-684", 1 ],
					"disabled" : 0,
					"hidden" : 0,
					"source" : [ "obj-721", 0 ]
				}

			}
, 			{
				"patchline" : 				{
					"destination" : [ "obj-685", 0 ],
					"disabled" : 0,
					"hidden" : 0,
					"order" : 1,
					"source" : [ "obj-722", 0 ]
				}

			}
, 			{
				"patchline" : 				{
					"destination" : [ "obj-686", 0 ],
					"disabled" : 0,
					"hidden" : 0,
					"order" : 0,
					"source" : [ "obj-722", 0 ]
				}

			}
 ]
	}

}
